# xmcd
#
# Track frame offsets: 
#        215
#        22241
#        39447
#        59525
#        75043
#
# Disc length: 1315 seconds
#
# Revision: 0
# Processed by: cddbd v1.5.2PL0 Copyright (c) Steve Scherf et al.
# Submitted via: ExactAudioCopy v0.95a3
#
DISCID=33052105
DTITLE=Sheryl Crow - Ao Vivo Na Radio Comercial
DYEAR=2002
DGENRE=Pop
TTITLE0=C'Mon, C'Mon
TTITLE1=If It Makes You Happy
TTITLE2=Soak Up The Sun
TTITLE3=Steve McQueen
TTITLE4=Everyday Is A Winding Road
EXTD=
EXTT0=
EXTT1=
EXTT2=
EXTT3=
EXTT4=
PLAYORDER=
